<mxfile host="app.diagrams.net" modified="2023-04-20T09:51:57.193Z" agent="Mozilla/5.0 (Macintosh; Intel Mac OS X 10_15_7) AppleWebKit/537.36 (KHTML, like Gecko) Chrome/112.0.0.0 Safari/537.36" etag="ZF22qdXY2OUTWHvOjkTl" version="21.1.9" type="device">
  <diagram name="第 1 页" id="9zUbWYoIl6yVEuOiOavs">
    <mxGraphModel dx="1073" dy="599" grid="0" gridSize="10" guides="1" tooltips="1" connect="1" arrows="1" fold="1" page="1" pageScale="1" pageWidth="1654" pageHeight="2336" math="0" shadow="0">
      <root>
        <mxCell id="0" />
        <mxCell id="1" parent="0" />
        <mxCell id="oUjWwWJiYIkfK6Kyxx1s-2" value="&lt;font style=&quot;font-size: 14px;&quot;&gt;1&lt;/font&gt;" style="rounded=0;whiteSpace=wrap;html=1;fillColor=#ffe6cc;strokeColor=#d79b00;fontFamily=Songti TC;fontSize=14;" vertex="1" parent="1">
          <mxGeometry x="280" y="480" width="40" height="40" as="geometry" />
        </mxCell>
        <mxCell id="oUjWwWJiYIkfK6Kyxx1s-3" value="2" style="rounded=0;whiteSpace=wrap;html=1;fillColor=#ffe6cc;strokeColor=#d79b00;fontFamily=Songti TC;fontSize=14;" vertex="1" parent="1">
          <mxGeometry x="320" y="480" width="40" height="40" as="geometry" />
        </mxCell>
        <mxCell id="oUjWwWJiYIkfK6Kyxx1s-4" value="3" style="rounded=0;whiteSpace=wrap;html=1;fillColor=#ffe6cc;strokeColor=#d79b00;fontFamily=Songti TC;fontSize=14;" vertex="1" parent="1">
          <mxGeometry x="360" y="480" width="40" height="40" as="geometry" />
        </mxCell>
        <mxCell id="oUjWwWJiYIkfK6Kyxx1s-5" value="3" style="rounded=0;whiteSpace=wrap;html=1;fillColor=#ffe6cc;strokeColor=#d79b00;fontFamily=Songti TC;fontSize=14;" vertex="1" parent="1">
          <mxGeometry x="400" y="480" width="40" height="40" as="geometry" />
        </mxCell>
        <mxCell id="oUjWwWJiYIkfK6Kyxx1s-6" value="&lt;font color=&quot;#ff0000&quot;&gt;4&lt;/font&gt;" style="rounded=0;whiteSpace=wrap;html=1;fillColor=#dae8fc;strokeColor=#6c8ebf;fontFamily=Songti TC;fontSize=14;" vertex="1" parent="1">
          <mxGeometry x="440" y="480" width="40" height="40" as="geometry" />
        </mxCell>
        <mxCell id="oUjWwWJiYIkfK6Kyxx1s-7" value="5" style="rounded=0;whiteSpace=wrap;html=1;fillColor=#dae8fc;strokeColor=#6c8ebf;fontFamily=Songti TC;fontSize=14;" vertex="1" parent="1">
          <mxGeometry x="480" y="480" width="40" height="40" as="geometry" />
        </mxCell>
        <mxCell id="oUjWwWJiYIkfK6Kyxx1s-8" value="6" style="rounded=0;whiteSpace=wrap;html=1;fillColor=#dae8fc;strokeColor=#6c8ebf;fontFamily=Songti TC;fontSize=14;" vertex="1" parent="1">
          <mxGeometry x="520" y="480" width="40" height="40" as="geometry" />
        </mxCell>
        <mxCell id="oUjWwWJiYIkfK6Kyxx1s-9" value="7" style="rounded=0;whiteSpace=wrap;html=1;fillColor=#dae8fc;strokeColor=#6c8ebf;fontFamily=Songti TC;fontSize=14;" vertex="1" parent="1">
          <mxGeometry x="560" y="480" width="40" height="40" as="geometry" />
        </mxCell>
        <mxCell id="oUjWwWJiYIkfK6Kyxx1s-10" value="8" style="rounded=0;whiteSpace=wrap;html=1;fillColor=#dae8fc;strokeColor=#6c8ebf;fontFamily=Songti TC;fontSize=14;" vertex="1" parent="1">
          <mxGeometry x="600" y="480" width="40" height="40" as="geometry" />
        </mxCell>
        <mxCell id="oUjWwWJiYIkfK6Kyxx1s-11" value="" style="endArrow=classic;html=1;rounded=0;" edge="1" parent="1">
          <mxGeometry width="50" height="50" relative="1" as="geometry">
            <mxPoint x="240" y="440" as="sourcePoint" />
            <mxPoint x="640" y="440" as="targetPoint" />
          </mxGeometry>
        </mxCell>
        <mxCell id="oUjWwWJiYIkfK6Kyxx1s-12" value="" style="endArrow=none;html=1;rounded=0;" edge="1" parent="1">
          <mxGeometry width="50" height="50" relative="1" as="geometry">
            <mxPoint x="240" y="440" as="sourcePoint" />
            <mxPoint x="400" y="280" as="targetPoint" />
          </mxGeometry>
        </mxCell>
        <mxCell id="oUjWwWJiYIkfK6Kyxx1s-13" value="" style="endArrow=none;html=1;rounded=0;" edge="1" parent="1">
          <mxGeometry width="50" height="50" relative="1" as="geometry">
            <mxPoint x="400" y="280" as="sourcePoint" />
            <mxPoint x="440" y="280" as="targetPoint" />
          </mxGeometry>
        </mxCell>
        <mxCell id="oUjWwWJiYIkfK6Kyxx1s-14" value="&lt;font style=&quot;font-size: 14px;&quot;&gt;0&lt;/font&gt;" style="rounded=0;whiteSpace=wrap;html=1;fillColor=#ffe6cc;strokeColor=#d79b00;fontFamily=Songti TC;fontSize=14;" vertex="1" parent="1">
          <mxGeometry x="240" y="480" width="40" height="40" as="geometry" />
        </mxCell>
        <mxCell id="oUjWwWJiYIkfK6Kyxx1s-15" value="" style="endArrow=none;html=1;rounded=0;strokeColor=#FF0000;" edge="1" parent="1">
          <mxGeometry width="50" height="50" relative="1" as="geometry">
            <mxPoint x="440" y="280" as="sourcePoint" />
            <mxPoint x="480" y="280" as="targetPoint" />
          </mxGeometry>
        </mxCell>
        <mxCell id="oUjWwWJiYIkfK6Kyxx1s-16" value="" style="endArrow=none;html=1;rounded=0;" edge="1" parent="1">
          <mxGeometry width="50" height="50" relative="1" as="geometry">
            <mxPoint x="480" y="280" as="sourcePoint" />
            <mxPoint x="520" y="240" as="targetPoint" />
          </mxGeometry>
        </mxCell>
        <mxCell id="oUjWwWJiYIkfK6Kyxx1s-17" value="" style="endArrow=none;html=1;rounded=0;" edge="1" parent="1">
          <mxGeometry width="50" height="50" relative="1" as="geometry">
            <mxPoint x="520" y="240" as="sourcePoint" />
            <mxPoint x="640" y="120" as="targetPoint" />
          </mxGeometry>
        </mxCell>
        <mxCell id="oUjWwWJiYIkfK6Kyxx1s-18" value="" style="endArrow=classic;html=1;rounded=0;" edge="1" parent="1">
          <mxGeometry width="50" height="50" relative="1" as="geometry">
            <mxPoint x="240" y="440" as="sourcePoint" />
            <mxPoint x="240" y="120" as="targetPoint" />
          </mxGeometry>
        </mxCell>
        <mxCell id="oUjWwWJiYIkfK6Kyxx1s-19" value="" style="endArrow=none;dashed=1;html=1;dashPattern=1 3;strokeWidth=2;rounded=0;fontColor=#FF0000;labelBorderColor=#FF0000;strokeColor=#FF0000;" edge="1" parent="1">
          <mxGeometry width="50" height="50" relative="1" as="geometry">
            <mxPoint x="480" y="480" as="sourcePoint" />
            <mxPoint x="480" y="280" as="targetPoint" />
          </mxGeometry>
        </mxCell>
        <mxCell id="oUjWwWJiYIkfK6Kyxx1s-20" value="&lt;div style=&quot;text-align: left;&quot;&gt;&lt;span style=&quot;font-family: &amp;quot;Songti TC&amp;quot;; font-size: x-small; background-color: initial;&quot;&gt;假设指定的数是存在的，而且是4，&lt;/span&gt;&lt;/div&gt;&lt;font face=&quot;Songti TC&quot; size=&quot;1&quot;&gt;&lt;div style=&quot;text-align: left;&quot;&gt;&lt;span style=&quot;background-color: initial;&quot;&gt;那么棕色部分就是满足&amp;lt;=4的&lt;/span&gt;&lt;/div&gt;&lt;div style=&quot;text-align: left;&quot;&gt;&lt;span style=&quot;background-color: initial;&quot;&gt;蓝色部分就是满足&amp;gt;=4的&lt;/span&gt;&lt;/div&gt;&lt;/font&gt;" style="text;html=1;align=center;verticalAlign=middle;resizable=0;points=[];autosize=1;strokeColor=none;fillColor=none;" vertex="1" parent="1">
          <mxGeometry x="315" y="530" width="210" height="60" as="geometry" />
        </mxCell>
        <mxCell id="oUjWwWJiYIkfK6Kyxx1s-21" value="&lt;font face=&quot;Songti TC&quot;&gt;&lt;font size=&quot;1&quot;&gt;从数轴上来看：&lt;br&gt;&amp;gt;=x的最小值和&lt;/font&gt;&amp;lt;x的最大值&lt;/font&gt;&lt;font size=&quot;1&quot; face=&quot;Songti TC&quot;&gt;&lt;br&gt;就是x本身，或者离x最近的数字&lt;br&gt;&lt;br&gt;&lt;/font&gt;" style="text;html=1;align=center;verticalAlign=middle;resizable=0;points=[];autosize=1;strokeColor=none;fillColor=none;" vertex="1" parent="1">
          <mxGeometry x="550" y="280" width="190" height="70" as="geometry" />
        </mxCell>
        <mxCell id="oUjWwWJiYIkfK6Kyxx1s-22" value="" style="endArrow=none;dashed=1;html=1;dashPattern=1 3;strokeWidth=2;rounded=0;strokeColor=#FF0000;" edge="1" parent="1">
          <mxGeometry width="50" height="50" relative="1" as="geometry">
            <mxPoint x="400" y="480" as="sourcePoint" />
            <mxPoint x="400" y="280" as="targetPoint" />
          </mxGeometry>
        </mxCell>
        <mxCell id="oUjWwWJiYIkfK6Kyxx1s-24" value="" style="endArrow=classic;html=1;rounded=0;" edge="1" parent="1">
          <mxGeometry width="50" height="50" relative="1" as="geometry">
            <mxPoint x="750" y="360" as="sourcePoint" />
            <mxPoint x="820" y="360" as="targetPoint" />
          </mxGeometry>
        </mxCell>
        <mxCell id="oUjWwWJiYIkfK6Kyxx1s-25" value="&lt;font size=&quot;1&quot; face=&quot;Songti TC&quot;&gt;抽象&lt;br&gt;&lt;/font&gt;" style="text;html=1;align=center;verticalAlign=middle;resizable=0;points=[];autosize=1;strokeColor=none;fillColor=none;" vertex="1" parent="1">
          <mxGeometry x="760" y="330" width="50" height="30" as="geometry" />
        </mxCell>
        <mxCell id="oUjWwWJiYIkfK6Kyxx1s-26" value="" style="endArrow=classic;html=1;rounded=0;" edge="1" parent="1">
          <mxGeometry width="50" height="50" relative="1" as="geometry">
            <mxPoint x="860" y="390" as="sourcePoint" />
            <mxPoint x="1260" y="390" as="targetPoint" />
          </mxGeometry>
        </mxCell>
        <mxCell id="oUjWwWJiYIkfK6Kyxx1s-27" value="" style="endArrow=classic;html=1;rounded=0;" edge="1" parent="1">
          <mxGeometry width="50" height="50" relative="1" as="geometry">
            <mxPoint x="870" y="390" as="sourcePoint" />
            <mxPoint x="1020" y="390" as="targetPoint" />
            <Array as="points">
              <mxPoint x="870" y="350" />
              <mxPoint x="970" y="350" />
              <mxPoint x="1020" y="350" />
            </Array>
          </mxGeometry>
        </mxCell>
        <mxCell id="oUjWwWJiYIkfK6Kyxx1s-28" value="" style="endArrow=classic;html=1;rounded=0;" edge="1" parent="1">
          <mxGeometry width="50" height="50" relative="1" as="geometry">
            <mxPoint x="1190" y="390" as="sourcePoint" />
            <mxPoint x="1040" y="390" as="targetPoint" />
            <Array as="points">
              <mxPoint x="1190" y="350" />
              <mxPoint x="1140" y="350" />
              <mxPoint x="1040" y="350" />
            </Array>
          </mxGeometry>
        </mxCell>
        <mxCell id="oUjWwWJiYIkfK6Kyxx1s-29" value="&lt;font size=&quot;1&quot; face=&quot;Songti TC&quot;&gt;满足给定性质&lt;br&gt;&lt;/font&gt;" style="text;html=1;align=center;verticalAlign=middle;resizable=0;points=[];autosize=1;strokeColor=none;fillColor=none;" vertex="1" parent="1">
          <mxGeometry x="895" y="350" width="100" height="30" as="geometry" />
        </mxCell>
        <mxCell id="oUjWwWJiYIkfK6Kyxx1s-31" value="&lt;font size=&quot;1&quot; face=&quot;Songti TC&quot;&gt;不满足给定性质&lt;br&gt;&lt;/font&gt;" style="text;html=1;align=center;verticalAlign=middle;resizable=0;points=[];autosize=1;strokeColor=none;fillColor=none;" vertex="1" parent="1">
          <mxGeometry x="1060" y="350" width="110" height="30" as="geometry" />
        </mxCell>
        <mxCell id="oUjWwWJiYIkfK6Kyxx1s-32" value="" style="endArrow=classic;html=1;rounded=0;" edge="1" parent="1">
          <mxGeometry width="50" height="50" relative="1" as="geometry">
            <mxPoint x="1020" y="430" as="sourcePoint" />
            <mxPoint x="1020" y="390" as="targetPoint" />
          </mxGeometry>
        </mxCell>
        <mxCell id="oUjWwWJiYIkfK6Kyxx1s-33" value="" style="endArrow=classic;html=1;rounded=0;" edge="1" parent="1">
          <mxGeometry width="50" height="50" relative="1" as="geometry">
            <mxPoint x="1040" y="430" as="sourcePoint" />
            <mxPoint x="1040" y="390" as="targetPoint" />
          </mxGeometry>
        </mxCell>
        <mxCell id="oUjWwWJiYIkfK6Kyxx1s-34" value="&lt;font size=&quot;1&quot; face=&quot;Songti TC&quot;&gt;满足性质的&lt;br&gt;最后一个元素的位置&lt;br&gt;&lt;/font&gt;" style="text;html=1;align=center;verticalAlign=middle;resizable=0;points=[];autosize=1;strokeColor=none;fillColor=none;" vertex="1" parent="1">
          <mxGeometry x="900" y="410" width="130" height="40" as="geometry" />
        </mxCell>
        <mxCell id="oUjWwWJiYIkfK6Kyxx1s-35" value="&lt;font size=&quot;1&quot; face=&quot;Songti TC&quot;&gt;不满足性质的&lt;br&gt;第一个元素的位置&lt;br&gt;&lt;/font&gt;" style="text;html=1;align=center;verticalAlign=middle;resizable=0;points=[];autosize=1;strokeColor=none;fillColor=none;" vertex="1" parent="1">
          <mxGeometry x="1030" y="410" width="120" height="40" as="geometry" />
        </mxCell>
        <mxCell id="oUjWwWJiYIkfK6Kyxx1s-37" value="&lt;div style=&quot;text-align: left;&quot;&gt;&lt;span style=&quot;font-family: &amp;quot;Songti TC&amp;quot;; font-size: x-small; background-color: initial;&quot;&gt;例如有这样的一个非递减序列：[1, 1, 2, 2, 3, 4, 4, 4]，&lt;/span&gt;&lt;/div&gt;&lt;div style=&quot;text-align: left;&quot;&gt;&lt;span style=&quot;font-family: &amp;quot;Songti TC&amp;quot;; font-size: x-small; background-color: initial;&quot;&gt;要找到值是4的元素的下标范围，从肉眼看是[5, 7]&lt;/span&gt;&lt;/div&gt;&lt;div style=&quot;text-align: left;&quot;&gt;&lt;font size=&quot;1&quot; face=&quot;Songti TC&quot;&gt;从二分+数轴视角看，4就是二分要查找的元素&lt;/font&gt;&lt;/div&gt;" style="text;html=1;align=center;verticalAlign=middle;resizable=0;points=[];autosize=1;strokeColor=none;fillColor=none;" vertex="1" parent="1">
          <mxGeometry x="835" y="450" width="290" height="60" as="geometry" />
        </mxCell>
        <mxCell id="oUjWwWJiYIkfK6Kyxx1s-38" value="&lt;font style=&quot;font-size: 14px;&quot;&gt;1&lt;/font&gt;" style="rounded=0;whiteSpace=wrap;html=1;fillColor=#ffe6cc;strokeColor=#d79b00;fontFamily=Songti TC;fontSize=14;" vertex="1" parent="1">
          <mxGeometry x="890" y="520" width="40" height="40" as="geometry" />
        </mxCell>
        <mxCell id="oUjWwWJiYIkfK6Kyxx1s-39" value="2" style="rounded=0;whiteSpace=wrap;html=1;fillColor=#ffe6cc;strokeColor=#d79b00;fontFamily=Songti TC;fontSize=14;" vertex="1" parent="1">
          <mxGeometry x="930" y="520" width="40" height="40" as="geometry" />
        </mxCell>
        <mxCell id="oUjWwWJiYIkfK6Kyxx1s-40" value="2" style="rounded=0;whiteSpace=wrap;html=1;fillColor=#ffe6cc;strokeColor=#d79b00;fontFamily=Songti TC;fontSize=14;" vertex="1" parent="1">
          <mxGeometry x="970" y="520" width="40" height="40" as="geometry" />
        </mxCell>
        <mxCell id="oUjWwWJiYIkfK6Kyxx1s-41" value="3" style="rounded=0;whiteSpace=wrap;html=1;fillColor=#ffe6cc;strokeColor=#d79b00;fontFamily=Songti TC;fontSize=14;" vertex="1" parent="1">
          <mxGeometry x="1010" y="520" width="40" height="40" as="geometry" />
        </mxCell>
        <mxCell id="oUjWwWJiYIkfK6Kyxx1s-42" value="4" style="rounded=0;whiteSpace=wrap;html=1;fillColor=#dae8fc;strokeColor=#6c8ebf;fontFamily=Songti TC;fontSize=14;" vertex="1" parent="1">
          <mxGeometry x="1050" y="520" width="40" height="40" as="geometry" />
        </mxCell>
        <mxCell id="oUjWwWJiYIkfK6Kyxx1s-43" value="4" style="rounded=0;whiteSpace=wrap;html=1;fillColor=#dae8fc;strokeColor=#6c8ebf;fontFamily=Songti TC;fontSize=14;" vertex="1" parent="1">
          <mxGeometry x="1090" y="520" width="40" height="40" as="geometry" />
        </mxCell>
        <mxCell id="oUjWwWJiYIkfK6Kyxx1s-44" value="4" style="rounded=0;whiteSpace=wrap;html=1;fillColor=#dae8fc;strokeColor=#6c8ebf;fontFamily=Songti TC;fontSize=14;" vertex="1" parent="1">
          <mxGeometry x="1130" y="520" width="40" height="40" as="geometry" />
        </mxCell>
        <mxCell id="oUjWwWJiYIkfK6Kyxx1s-47" value="&lt;font style=&quot;font-size: 14px;&quot;&gt;1&lt;/font&gt;" style="rounded=0;whiteSpace=wrap;html=1;fillColor=#ffe6cc;strokeColor=#d79b00;fontFamily=Songti TC;fontSize=14;" vertex="1" parent="1">
          <mxGeometry x="850" y="520" width="40" height="40" as="geometry" />
        </mxCell>
        <mxCell id="oUjWwWJiYIkfK6Kyxx1s-58" value="" style="group" vertex="1" connectable="0" parent="1">
          <mxGeometry x="850" y="560" width="320" height="20" as="geometry" />
        </mxCell>
        <mxCell id="oUjWwWJiYIkfK6Kyxx1s-49" value="&lt;font style=&quot;font-size: 14px;&quot;&gt;1&lt;/font&gt;" style="rounded=0;whiteSpace=wrap;html=1;fontFamily=Songti TC;fontSize=14;container=0;" vertex="1" parent="oUjWwWJiYIkfK6Kyxx1s-58">
          <mxGeometry x="40" width="40" height="20" as="geometry" />
        </mxCell>
        <mxCell id="oUjWwWJiYIkfK6Kyxx1s-50" value="2" style="rounded=0;whiteSpace=wrap;html=1;fontFamily=Songti TC;fontSize=14;container=0;" vertex="1" parent="oUjWwWJiYIkfK6Kyxx1s-58">
          <mxGeometry x="80" width="40" height="20" as="geometry" />
        </mxCell>
        <mxCell id="oUjWwWJiYIkfK6Kyxx1s-51" value="3" style="rounded=0;whiteSpace=wrap;html=1;fontFamily=Songti TC;fontSize=14;container=0;" vertex="1" parent="oUjWwWJiYIkfK6Kyxx1s-58">
          <mxGeometry x="120" width="40" height="20" as="geometry" />
        </mxCell>
        <mxCell id="oUjWwWJiYIkfK6Kyxx1s-52" value="4" style="rounded=0;whiteSpace=wrap;html=1;fontFamily=Songti TC;fontSize=14;container=0;" vertex="1" parent="oUjWwWJiYIkfK6Kyxx1s-58">
          <mxGeometry x="160" width="40" height="20" as="geometry" />
        </mxCell>
        <mxCell id="oUjWwWJiYIkfK6Kyxx1s-53" value="5" style="rounded=0;whiteSpace=wrap;html=1;fontFamily=Songti TC;fontSize=14;container=0;" vertex="1" parent="oUjWwWJiYIkfK6Kyxx1s-58">
          <mxGeometry x="200" width="40" height="20" as="geometry" />
        </mxCell>
        <mxCell id="oUjWwWJiYIkfK6Kyxx1s-54" value="6" style="rounded=0;whiteSpace=wrap;html=1;fontFamily=Songti TC;fontSize=14;container=0;" vertex="1" parent="oUjWwWJiYIkfK6Kyxx1s-58">
          <mxGeometry x="240" width="40" height="20" as="geometry" />
        </mxCell>
        <mxCell id="oUjWwWJiYIkfK6Kyxx1s-55" value="7" style="rounded=0;whiteSpace=wrap;html=1;fontFamily=Songti TC;fontSize=14;container=0;" vertex="1" parent="oUjWwWJiYIkfK6Kyxx1s-58">
          <mxGeometry x="280" width="40" height="20" as="geometry" />
        </mxCell>
        <mxCell id="oUjWwWJiYIkfK6Kyxx1s-56" value="&lt;font style=&quot;font-size: 14px;&quot;&gt;0&lt;/font&gt;" style="rounded=0;whiteSpace=wrap;html=1;fontFamily=Songti TC;fontSize=14;container=0;" vertex="1" parent="oUjWwWJiYIkfK6Kyxx1s-58">
          <mxGeometry width="40" height="20" as="geometry" />
        </mxCell>
        <mxCell id="oUjWwWJiYIkfK6Kyxx1s-59" value="&lt;font size=&quot;1&quot; face=&quot;Songti TC&quot;&gt;&lt;br&gt;&lt;/font&gt;" style="text;html=1;align=center;verticalAlign=middle;resizable=0;points=[];autosize=1;strokeColor=none;fillColor=none;" vertex="1" parent="1">
          <mxGeometry x="1160" y="635" width="20" height="30" as="geometry" />
        </mxCell>
        <mxCell id="oUjWwWJiYIkfK6Kyxx1s-60" value="&lt;font size=&quot;1&quot; face=&quot;Songti TC&quot;&gt;不满足a[i]&amp;gt;=4的第一个位置&lt;br&gt;(a[i]&amp;lt;4的最后一个位置)&lt;br&gt;&lt;/font&gt;" style="text;html=1;align=center;verticalAlign=middle;resizable=0;points=[];autosize=1;strokeColor=none;fillColor=none;" vertex="1" parent="1">
          <mxGeometry x="890" y="610" width="170" height="40" as="geometry" />
        </mxCell>
        <mxCell id="oUjWwWJiYIkfK6Kyxx1s-61" value="" style="endArrow=classic;html=1;rounded=0;" edge="1" parent="1">
          <mxGeometry width="50" height="50" relative="1" as="geometry">
            <mxPoint x="1170" y="620" as="sourcePoint" />
            <mxPoint x="1170" y="580" as="targetPoint" />
          </mxGeometry>
        </mxCell>
        <mxCell id="oUjWwWJiYIkfK6Kyxx1s-62" value="" style="endArrow=classic;html=1;rounded=0;" edge="1" parent="1">
          <mxGeometry width="50" height="50" relative="1" as="geometry">
            <mxPoint x="1050" y="620" as="sourcePoint" />
            <mxPoint x="1050" y="580" as="targetPoint" />
          </mxGeometry>
        </mxCell>
        <mxCell id="oUjWwWJiYIkfK6Kyxx1s-63" value="&lt;div style=&quot;text-align: left;&quot;&gt;&lt;span style=&quot;color: rgb(179, 179, 179); font-family: &amp;quot;Songti TC&amp;quot;; background-color: initial;&quot;&gt;注意是不满足的第一个位置，&lt;/span&gt;&lt;/div&gt;&lt;font style=&quot;font-size: 12px;&quot; face=&quot;Songti TC&quot;&gt;&lt;div style=&quot;text-align: left;&quot;&gt;&lt;span style=&quot;color: rgb(179, 179, 179); background-color: initial;&quot;&gt;所以应该是4而不是3&lt;/span&gt;&lt;/div&gt;&lt;/font&gt;" style="text;html=1;align=center;verticalAlign=middle;resizable=0;points=[];autosize=1;strokeColor=none;fillColor=none;" vertex="1" parent="1">
          <mxGeometry x="890" y="640" width="180" height="40" as="geometry" />
        </mxCell>
        <mxCell id="oUjWwWJiYIkfK6Kyxx1s-64" value="&lt;font size=&quot;1&quot; face=&quot;Songti TC&quot;&gt;满足a[i]&amp;gt;=4的最后一个位置位置&lt;br&gt;&lt;/font&gt;" style="text;html=1;align=center;verticalAlign=middle;resizable=0;points=[];autosize=1;strokeColor=none;fillColor=none;" vertex="1" parent="1">
          <mxGeometry x="1085" y="615" width="190" height="30" as="geometry" />
        </mxCell>
        <mxCell id="oUjWwWJiYIkfK6Kyxx1s-65" value="" style="endArrow=none;html=1;rounded=0;" edge="1" parent="1">
          <mxGeometry width="50" height="50" relative="1" as="geometry">
            <mxPoint x="519.5" y="990" as="sourcePoint" />
            <mxPoint x="630.5" y="990" as="targetPoint" />
          </mxGeometry>
        </mxCell>
        <mxCell id="oUjWwWJiYIkfK6Kyxx1s-66" value="" style="endArrow=none;html=1;rounded=0;" edge="1" parent="1">
          <mxGeometry width="50" height="50" relative="1" as="geometry">
            <mxPoint x="510" y="963.5" as="sourcePoint" />
            <mxPoint x="627" y="926.5" as="targetPoint" />
            <Array as="points">
              <mxPoint x="527" y="926.5" />
            </Array>
          </mxGeometry>
        </mxCell>
        <mxCell id="oUjWwWJiYIkfK6Kyxx1s-67" value="&lt;font style=&quot;font-size: 25px;&quot;&gt;&amp;nbsp;1&amp;nbsp; 2&amp;nbsp; 3&amp;nbsp; 4&lt;/font&gt;" style="text;html=1;strokeColor=none;fillColor=none;align=center;verticalAlign=middle;whiteSpace=wrap;rounded=0;fontFamily=Songti TC;" vertex="1" parent="1">
          <mxGeometry x="520" y="930" width="110" height="30" as="geometry" />
        </mxCell>
        <mxCell id="oUjWwWJiYIkfK6Kyxx1s-68" value="&lt;font style=&quot;font-size: 25px;&quot;&gt;11&lt;/font&gt;" style="text;html=1;strokeColor=none;fillColor=none;align=center;verticalAlign=middle;whiteSpace=wrap;rounded=0;fontFamily=Songti TC;" vertex="1" parent="1">
          <mxGeometry x="460" y="930" width="70" height="30" as="geometry" />
        </mxCell>
        <mxCell id="oUjWwWJiYIkfK6Kyxx1s-69" value="&lt;font color=&quot;#ff0000&quot; style=&quot;font-size: 25px;&quot;&gt;0&amp;nbsp;&lt;/font&gt;" style="text;html=1;strokeColor=none;fillColor=none;align=center;verticalAlign=middle;whiteSpace=wrap;rounded=0;fontFamily=Songti TC;" vertex="1" parent="1">
          <mxGeometry x="510" y="900" width="70" height="30" as="geometry" />
        </mxCell>
        <mxCell id="oUjWwWJiYIkfK6Kyxx1s-70" value="&lt;font style=&quot;font-size: 25px;&quot;&gt;0&amp;nbsp;&lt;/font&gt;" style="text;html=1;strokeColor=none;fillColor=none;align=center;verticalAlign=middle;whiteSpace=wrap;rounded=0;fontFamily=Songti TC;" vertex="1" parent="1">
          <mxGeometry x="510" y="960" width="70" height="30" as="geometry" />
        </mxCell>
        <mxCell id="oUjWwWJiYIkfK6Kyxx1s-71" value="&lt;font color=&quot;#0000ff&quot; style=&quot;font-size: 25px;&quot;&gt;1&amp;nbsp;&lt;/font&gt;" style="text;html=1;strokeColor=none;fillColor=none;align=center;verticalAlign=middle;whiteSpace=wrap;rounded=0;fontFamily=Songti TC;" vertex="1" parent="1">
          <mxGeometry x="510" y="990" width="70" height="30" as="geometry" />
        </mxCell>
        <mxCell id="oUjWwWJiYIkfK6Kyxx1s-72" value="&lt;font style=&quot;font-size: 25px;&quot;&gt;-&lt;/font&gt;" style="text;html=1;strokeColor=none;fillColor=none;align=center;verticalAlign=middle;whiteSpace=wrap;rounded=0;fontFamily=Songti TC;" vertex="1" parent="1">
          <mxGeometry x="510" y="970" width="30" height="10" as="geometry" />
        </mxCell>
        <mxCell id="oUjWwWJiYIkfK6Kyxx1s-89" value="" style="endArrow=none;html=1;rounded=0;" edge="1" parent="1">
          <mxGeometry width="50" height="50" relative="1" as="geometry">
            <mxPoint x="724" y="990" as="sourcePoint" />
            <mxPoint x="835" y="990" as="targetPoint" />
          </mxGeometry>
        </mxCell>
        <mxCell id="oUjWwWJiYIkfK6Kyxx1s-90" value="" style="endArrow=none;html=1;rounded=0;" edge="1" parent="1">
          <mxGeometry width="50" height="50" relative="1" as="geometry">
            <mxPoint x="714.5" y="963.5" as="sourcePoint" />
            <mxPoint x="831.5" y="926.5" as="targetPoint" />
            <Array as="points">
              <mxPoint x="731.5" y="926.5" />
            </Array>
          </mxGeometry>
        </mxCell>
        <mxCell id="oUjWwWJiYIkfK6Kyxx1s-91" value="&lt;font style=&quot;font-size: 25px;&quot;&gt;&amp;nbsp;1&amp;nbsp; 2&amp;nbsp; 3&amp;nbsp; 4&lt;/font&gt;" style="text;html=1;strokeColor=none;fillColor=none;align=center;verticalAlign=middle;whiteSpace=wrap;rounded=0;fontFamily=Songti TC;" vertex="1" parent="1">
          <mxGeometry x="724.5" y="930" width="110" height="30" as="geometry" />
        </mxCell>
        <mxCell id="oUjWwWJiYIkfK6Kyxx1s-92" value="&lt;font style=&quot;font-size: 25px;&quot;&gt;11&lt;/font&gt;" style="text;html=1;strokeColor=none;fillColor=none;align=center;verticalAlign=middle;whiteSpace=wrap;rounded=0;fontFamily=Songti TC;" vertex="1" parent="1">
          <mxGeometry x="664.5" y="930" width="70" height="30" as="geometry" />
        </mxCell>
        <mxCell id="oUjWwWJiYIkfK6Kyxx1s-93" value="&lt;font color=&quot;#ff0000&quot; style=&quot;font-size: 25px;&quot;&gt;&amp;nbsp; &amp;nbsp;0&amp;nbsp; 1&lt;/font&gt;" style="text;html=1;strokeColor=none;fillColor=none;align=center;verticalAlign=middle;whiteSpace=wrap;rounded=0;fontFamily=Songti TC;" vertex="1" parent="1">
          <mxGeometry x="714.5" y="900" width="70" height="30" as="geometry" />
        </mxCell>
        <mxCell id="oUjWwWJiYIkfK6Kyxx1s-94" value="&lt;font style=&quot;font-size: 25px;&quot;&gt;0&amp;nbsp;&lt;/font&gt;" style="text;html=1;strokeColor=none;fillColor=none;align=center;verticalAlign=middle;whiteSpace=wrap;rounded=0;fontFamily=Songti TC;" vertex="1" parent="1">
          <mxGeometry x="714.5" y="960" width="70" height="30" as="geometry" />
        </mxCell>
        <mxCell id="oUjWwWJiYIkfK6Kyxx1s-95" value="&lt;font color=&quot;#0000ff&quot; style=&quot;font-size: 25px;&quot;&gt;&amp;nbsp; &amp;nbsp;1&amp;nbsp; &lt;/font&gt;&lt;font style=&quot;font-size: 25px;&quot;&gt;2&lt;/font&gt;" style="text;html=1;strokeColor=none;fillColor=none;align=center;verticalAlign=middle;whiteSpace=wrap;rounded=0;fontFamily=Songti TC;" vertex="1" parent="1">
          <mxGeometry x="714.5" y="990" width="70" height="30" as="geometry" />
        </mxCell>
        <mxCell id="oUjWwWJiYIkfK6Kyxx1s-96" value="&lt;font style=&quot;font-size: 25px;&quot;&gt;-&lt;/font&gt;" style="text;html=1;strokeColor=none;fillColor=none;align=center;verticalAlign=middle;whiteSpace=wrap;rounded=0;fontFamily=Songti TC;" vertex="1" parent="1">
          <mxGeometry x="714.5" y="970" width="30" height="10" as="geometry" />
        </mxCell>
        <mxCell id="oUjWwWJiYIkfK6Kyxx1s-98" value="" style="endArrow=none;html=1;rounded=0;" edge="1" parent="1">
          <mxGeometry width="50" height="50" relative="1" as="geometry">
            <mxPoint x="724.5" y="1050" as="sourcePoint" />
            <mxPoint x="835.5" y="1050" as="targetPoint" />
          </mxGeometry>
        </mxCell>
        <mxCell id="oUjWwWJiYIkfK6Kyxx1s-99" value="&lt;font style=&quot;font-size: 25px;&quot;&gt;&amp;nbsp; &amp;nbsp;1&amp;nbsp; 1&lt;/font&gt;" style="text;html=1;strokeColor=none;fillColor=none;align=center;verticalAlign=middle;whiteSpace=wrap;rounded=0;fontFamily=Songti TC;" vertex="1" parent="1">
          <mxGeometry x="714.5" y="1020" width="70" height="30" as="geometry" />
        </mxCell>
        <mxCell id="oUjWwWJiYIkfK6Kyxx1s-100" value="&lt;font style=&quot;font-size: 25px;&quot;&gt;-&lt;/font&gt;" style="text;html=1;strokeColor=none;fillColor=none;align=center;verticalAlign=middle;whiteSpace=wrap;rounded=0;fontFamily=Songti TC;" vertex="1" parent="1">
          <mxGeometry x="714.5" y="1030" width="30" height="10" as="geometry" />
        </mxCell>
        <mxCell id="oUjWwWJiYIkfK6Kyxx1s-101" value="&lt;font color=&quot;#0000ff&quot; style=&quot;font-size: 25px;&quot;&gt;&amp;nbsp; &amp;nbsp; &amp;nbsp; &amp;nbsp;1&lt;/font&gt;" style="text;html=1;strokeColor=none;fillColor=none;align=center;verticalAlign=middle;whiteSpace=wrap;rounded=0;fontFamily=Songti TC;" vertex="1" parent="1">
          <mxGeometry x="714.5" y="1050" width="70" height="30" as="geometry" />
        </mxCell>
        <mxCell id="oUjWwWJiYIkfK6Kyxx1s-102" value="" style="endArrow=none;html=1;rounded=0;" edge="1" parent="1">
          <mxGeometry width="50" height="50" relative="1" as="geometry">
            <mxPoint x="919" y="990" as="sourcePoint" />
            <mxPoint x="1030" y="990" as="targetPoint" />
          </mxGeometry>
        </mxCell>
        <mxCell id="oUjWwWJiYIkfK6Kyxx1s-103" value="" style="endArrow=none;html=1;rounded=0;" edge="1" parent="1">
          <mxGeometry width="50" height="50" relative="1" as="geometry">
            <mxPoint x="909.5" y="963.5" as="sourcePoint" />
            <mxPoint x="1026.5" y="926.5" as="targetPoint" />
            <Array as="points">
              <mxPoint x="926.5" y="926.5" />
            </Array>
          </mxGeometry>
        </mxCell>
        <mxCell id="oUjWwWJiYIkfK6Kyxx1s-104" value="&lt;font style=&quot;font-size: 25px;&quot;&gt;&amp;nbsp;1&amp;nbsp; 2&amp;nbsp; 3&amp;nbsp; 4&lt;/font&gt;" style="text;html=1;strokeColor=none;fillColor=none;align=center;verticalAlign=middle;whiteSpace=wrap;rounded=0;fontFamily=Songti TC;" vertex="1" parent="1">
          <mxGeometry x="919.5" y="930" width="110" height="30" as="geometry" />
        </mxCell>
        <mxCell id="oUjWwWJiYIkfK6Kyxx1s-105" value="&lt;font style=&quot;font-size: 25px;&quot;&gt;11&lt;/font&gt;" style="text;html=1;strokeColor=none;fillColor=none;align=center;verticalAlign=middle;whiteSpace=wrap;rounded=0;fontFamily=Songti TC;" vertex="1" parent="1">
          <mxGeometry x="859.5" y="930" width="70" height="30" as="geometry" />
        </mxCell>
        <mxCell id="oUjWwWJiYIkfK6Kyxx1s-106" value="&lt;font color=&quot;#ff0000&quot; style=&quot;font-size: 25px;&quot;&gt;&amp;nbsp;0&amp;nbsp; 1&amp;nbsp; 1&lt;/font&gt;" style="text;html=1;strokeColor=none;fillColor=none;align=left;verticalAlign=middle;whiteSpace=wrap;rounded=0;fontFamily=Songti TC;" vertex="1" parent="1">
          <mxGeometry x="930" y="900" width="100" height="30" as="geometry" />
        </mxCell>
        <mxCell id="oUjWwWJiYIkfK6Kyxx1s-107" value="&lt;font style=&quot;font-size: 25px;&quot;&gt;0&amp;nbsp;&lt;/font&gt;" style="text;html=1;strokeColor=none;fillColor=none;align=center;verticalAlign=middle;whiteSpace=wrap;rounded=0;fontFamily=Songti TC;" vertex="1" parent="1">
          <mxGeometry x="909.5" y="960" width="70" height="30" as="geometry" />
        </mxCell>
        <mxCell id="oUjWwWJiYIkfK6Kyxx1s-108" value="&lt;font color=&quot;#0000ff&quot; style=&quot;font-size: 25px;&quot;&gt;&amp;nbsp; &amp;nbsp;1&amp;nbsp; &lt;/font&gt;&lt;font style=&quot;font-size: 25px;&quot;&gt;2&lt;/font&gt;" style="text;html=1;strokeColor=none;fillColor=none;align=center;verticalAlign=middle;whiteSpace=wrap;rounded=0;fontFamily=Songti TC;" vertex="1" parent="1">
          <mxGeometry x="909.5" y="990" width="70" height="30" as="geometry" />
        </mxCell>
        <mxCell id="oUjWwWJiYIkfK6Kyxx1s-109" value="&lt;font style=&quot;font-size: 25px;&quot;&gt;-&lt;/font&gt;" style="text;html=1;strokeColor=none;fillColor=none;align=center;verticalAlign=middle;whiteSpace=wrap;rounded=0;fontFamily=Songti TC;" vertex="1" parent="1">
          <mxGeometry x="909.5" y="970" width="30" height="10" as="geometry" />
        </mxCell>
        <mxCell id="oUjWwWJiYIkfK6Kyxx1s-110" value="" style="endArrow=none;html=1;rounded=0;" edge="1" parent="1">
          <mxGeometry width="50" height="50" relative="1" as="geometry">
            <mxPoint x="919.5" y="1050" as="sourcePoint" />
            <mxPoint x="1031" y="1050" as="targetPoint" />
          </mxGeometry>
        </mxCell>
        <mxCell id="oUjWwWJiYIkfK6Kyxx1s-111" value="&lt;font style=&quot;font-size: 25px;&quot;&gt;&amp;nbsp; &amp;nbsp;1&amp;nbsp; 1&lt;/font&gt;" style="text;html=1;strokeColor=none;fillColor=none;align=center;verticalAlign=middle;whiteSpace=wrap;rounded=0;fontFamily=Songti TC;" vertex="1" parent="1">
          <mxGeometry x="909.5" y="1020" width="70" height="30" as="geometry" />
        </mxCell>
        <mxCell id="oUjWwWJiYIkfK6Kyxx1s-112" value="&lt;font style=&quot;font-size: 25px;&quot;&gt;-&lt;/font&gt;" style="text;html=1;strokeColor=none;fillColor=none;align=center;verticalAlign=middle;whiteSpace=wrap;rounded=0;fontFamily=Songti TC;" vertex="1" parent="1">
          <mxGeometry x="909.5" y="1030" width="30" height="10" as="geometry" />
        </mxCell>
        <mxCell id="oUjWwWJiYIkfK6Kyxx1s-113" value="&lt;font color=&quot;#0000ff&quot; style=&quot;font-size: 25px;&quot;&gt;&amp;nbsp; &amp;nbsp; &amp;nbsp;1&amp;nbsp;&lt;/font&gt;&lt;font style=&quot;font-size: 25px;&quot;&gt; 3&lt;/font&gt;" style="text;html=1;strokeColor=none;fillColor=none;align=center;verticalAlign=middle;whiteSpace=wrap;rounded=0;fontFamily=Songti TC;" vertex="1" parent="1">
          <mxGeometry x="909.5" y="1050" width="110.5" height="30" as="geometry" />
        </mxCell>
        <mxCell id="oUjWwWJiYIkfK6Kyxx1s-115" value="&lt;font style=&quot;font-size: 25px;&quot;&gt;&amp;nbsp; &amp;nbsp; &amp;nbsp;1&amp;nbsp; 1&lt;/font&gt;" style="text;html=1;strokeColor=none;fillColor=none;align=center;verticalAlign=middle;whiteSpace=wrap;rounded=0;fontFamily=Songti TC;" vertex="1" parent="1">
          <mxGeometry x="909.75" y="1080" width="110.5" height="30" as="geometry" />
        </mxCell>
        <mxCell id="oUjWwWJiYIkfK6Kyxx1s-116" value="" style="endArrow=none;html=1;rounded=0;" edge="1" parent="1">
          <mxGeometry width="50" height="50" relative="1" as="geometry">
            <mxPoint x="919.25" y="1110" as="sourcePoint" />
            <mxPoint x="1030.75" y="1110" as="targetPoint" />
          </mxGeometry>
        </mxCell>
        <mxCell id="oUjWwWJiYIkfK6Kyxx1s-117" value="&lt;font style=&quot;font-size: 25px;&quot;&gt;-&lt;/font&gt;" style="text;html=1;strokeColor=none;fillColor=none;align=center;verticalAlign=middle;whiteSpace=wrap;rounded=0;fontFamily=Songti TC;" vertex="1" parent="1">
          <mxGeometry x="909.75" y="1090" width="30" height="10" as="geometry" />
        </mxCell>
        <mxCell id="oUjWwWJiYIkfK6Kyxx1s-118" value="&lt;font color=&quot;#0000ff&quot; style=&quot;font-size: 25px;&quot;&gt;&amp;nbsp; &amp;nbsp; &amp;nbsp;2&lt;/font&gt;" style="text;html=1;strokeColor=none;fillColor=none;align=center;verticalAlign=middle;whiteSpace=wrap;rounded=0;fontFamily=Songti TC;" vertex="1" parent="1">
          <mxGeometry x="919.75" y="1110" width="110.5" height="30" as="geometry" />
        </mxCell>
        <mxCell id="oUjWwWJiYIkfK6Kyxx1s-119" value="" style="endArrow=none;html=1;rounded=0;" edge="1" parent="1">
          <mxGeometry width="50" height="50" relative="1" as="geometry">
            <mxPoint x="1109.5" y="990" as="sourcePoint" />
            <mxPoint x="1220.5" y="990" as="targetPoint" />
          </mxGeometry>
        </mxCell>
        <mxCell id="oUjWwWJiYIkfK6Kyxx1s-120" value="" style="endArrow=none;html=1;rounded=0;" edge="1" parent="1">
          <mxGeometry width="50" height="50" relative="1" as="geometry">
            <mxPoint x="1100" y="963.5" as="sourcePoint" />
            <mxPoint x="1217" y="926.5" as="targetPoint" />
            <Array as="points">
              <mxPoint x="1117" y="926.5" />
            </Array>
          </mxGeometry>
        </mxCell>
        <mxCell id="oUjWwWJiYIkfK6Kyxx1s-121" value="&lt;font style=&quot;font-size: 25px;&quot;&gt;&amp;nbsp;1&amp;nbsp; 2&amp;nbsp; 3&amp;nbsp; 4&lt;/font&gt;" style="text;html=1;strokeColor=none;fillColor=none;align=center;verticalAlign=middle;whiteSpace=wrap;rounded=0;fontFamily=Songti TC;" vertex="1" parent="1">
          <mxGeometry x="1110" y="930" width="110" height="30" as="geometry" />
        </mxCell>
        <mxCell id="oUjWwWJiYIkfK6Kyxx1s-122" value="&lt;font style=&quot;font-size: 25px;&quot;&gt;11&lt;/font&gt;" style="text;html=1;strokeColor=none;fillColor=none;align=center;verticalAlign=middle;whiteSpace=wrap;rounded=0;fontFamily=Songti TC;" vertex="1" parent="1">
          <mxGeometry x="1050" y="930" width="70" height="30" as="geometry" />
        </mxCell>
        <mxCell id="oUjWwWJiYIkfK6Kyxx1s-123" value="&lt;font color=&quot;#ff0000&quot; style=&quot;font-size: 25px;&quot;&gt;&amp;nbsp;0&amp;nbsp; 1&amp;nbsp; 1&amp;nbsp; 2&lt;/font&gt;" style="text;html=1;strokeColor=none;fillColor=none;align=left;verticalAlign=middle;whiteSpace=wrap;rounded=0;fontFamily=Songti TC;" vertex="1" parent="1">
          <mxGeometry x="1120.5" y="900" width="100" height="30" as="geometry" />
        </mxCell>
        <mxCell id="oUjWwWJiYIkfK6Kyxx1s-124" value="&lt;font style=&quot;font-size: 25px;&quot;&gt;0&amp;nbsp;&lt;/font&gt;" style="text;html=1;strokeColor=none;fillColor=none;align=center;verticalAlign=middle;whiteSpace=wrap;rounded=0;fontFamily=Songti TC;" vertex="1" parent="1">
          <mxGeometry x="1100" y="960" width="70" height="30" as="geometry" />
        </mxCell>
        <mxCell id="oUjWwWJiYIkfK6Kyxx1s-125" value="&lt;font color=&quot;#0000ff&quot; style=&quot;font-size: 25px;&quot;&gt;&amp;nbsp; &amp;nbsp;1&amp;nbsp; &lt;/font&gt;&lt;font style=&quot;font-size: 25px;&quot;&gt;2&lt;/font&gt;" style="text;html=1;strokeColor=none;fillColor=none;align=center;verticalAlign=middle;whiteSpace=wrap;rounded=0;fontFamily=Songti TC;" vertex="1" parent="1">
          <mxGeometry x="1100" y="990" width="70" height="30" as="geometry" />
        </mxCell>
        <mxCell id="oUjWwWJiYIkfK6Kyxx1s-126" value="&lt;font style=&quot;font-size: 25px;&quot;&gt;-&lt;/font&gt;" style="text;html=1;strokeColor=none;fillColor=none;align=center;verticalAlign=middle;whiteSpace=wrap;rounded=0;fontFamily=Songti TC;" vertex="1" parent="1">
          <mxGeometry x="1100" y="970" width="30" height="10" as="geometry" />
        </mxCell>
        <mxCell id="oUjWwWJiYIkfK6Kyxx1s-127" value="" style="endArrow=none;html=1;rounded=0;" edge="1" parent="1">
          <mxGeometry width="50" height="50" relative="1" as="geometry">
            <mxPoint x="1110" y="1050" as="sourcePoint" />
            <mxPoint x="1221.5" y="1050" as="targetPoint" />
          </mxGeometry>
        </mxCell>
        <mxCell id="oUjWwWJiYIkfK6Kyxx1s-128" value="&lt;font style=&quot;font-size: 25px;&quot;&gt;&amp;nbsp; &amp;nbsp;1&amp;nbsp; 1&lt;/font&gt;" style="text;html=1;strokeColor=none;fillColor=none;align=center;verticalAlign=middle;whiteSpace=wrap;rounded=0;fontFamily=Songti TC;" vertex="1" parent="1">
          <mxGeometry x="1100" y="1020" width="70" height="30" as="geometry" />
        </mxCell>
        <mxCell id="oUjWwWJiYIkfK6Kyxx1s-129" value="&lt;font style=&quot;font-size: 25px;&quot;&gt;-&lt;/font&gt;" style="text;html=1;strokeColor=none;fillColor=none;align=center;verticalAlign=middle;whiteSpace=wrap;rounded=0;fontFamily=Songti TC;" vertex="1" parent="1">
          <mxGeometry x="1100" y="1030" width="30" height="10" as="geometry" />
        </mxCell>
        <mxCell id="oUjWwWJiYIkfK6Kyxx1s-130" value="&lt;font color=&quot;#0000ff&quot; style=&quot;font-size: 25px;&quot;&gt;&amp;nbsp; &amp;nbsp; &amp;nbsp;1&amp;nbsp;&lt;/font&gt;&lt;font style=&quot;font-size: 25px;&quot;&gt; 3&lt;/font&gt;" style="text;html=1;strokeColor=none;fillColor=none;align=center;verticalAlign=middle;whiteSpace=wrap;rounded=0;fontFamily=Songti TC;" vertex="1" parent="1">
          <mxGeometry x="1100" y="1050" width="110.5" height="30" as="geometry" />
        </mxCell>
        <mxCell id="oUjWwWJiYIkfK6Kyxx1s-131" value="&lt;font style=&quot;font-size: 25px;&quot;&gt;&amp;nbsp; &amp;nbsp; &amp;nbsp;1&amp;nbsp; 1&lt;/font&gt;" style="text;html=1;strokeColor=none;fillColor=none;align=center;verticalAlign=middle;whiteSpace=wrap;rounded=0;fontFamily=Songti TC;" vertex="1" parent="1">
          <mxGeometry x="1100.25" y="1080" width="110.5" height="30" as="geometry" />
        </mxCell>
        <mxCell id="oUjWwWJiYIkfK6Kyxx1s-132" value="" style="endArrow=none;html=1;rounded=0;" edge="1" parent="1">
          <mxGeometry width="50" height="50" relative="1" as="geometry">
            <mxPoint x="1109.75" y="1110" as="sourcePoint" />
            <mxPoint x="1221.25" y="1110" as="targetPoint" />
          </mxGeometry>
        </mxCell>
        <mxCell id="oUjWwWJiYIkfK6Kyxx1s-133" value="&lt;font style=&quot;font-size: 25px;&quot;&gt;-&lt;/font&gt;" style="text;html=1;strokeColor=none;fillColor=none;align=center;verticalAlign=middle;whiteSpace=wrap;rounded=0;fontFamily=Songti TC;" vertex="1" parent="1">
          <mxGeometry x="1100.25" y="1090" width="30" height="10" as="geometry" />
        </mxCell>
        <mxCell id="oUjWwWJiYIkfK6Kyxx1s-134" value="&lt;font color=&quot;#0000ff&quot; style=&quot;font-size: 25px;&quot;&gt;&amp;nbsp; &amp;nbsp; &amp;nbsp;2&amp;nbsp; &lt;/font&gt;&lt;font style=&quot;font-size: 25px;&quot;&gt;4&lt;/font&gt;" style="text;html=1;strokeColor=none;fillColor=none;align=center;verticalAlign=middle;whiteSpace=wrap;rounded=0;fontFamily=Songti TC;" vertex="1" parent="1">
          <mxGeometry x="1124.75" y="1110" width="110.5" height="30" as="geometry" />
        </mxCell>
        <mxCell id="oUjWwWJiYIkfK6Kyxx1s-135" value="&lt;font style=&quot;font-size: 25px;&quot;&gt;&amp;nbsp; &amp;nbsp; &amp;nbsp;2&amp;nbsp; 2&lt;/font&gt;" style="text;html=1;strokeColor=none;fillColor=none;align=center;verticalAlign=middle;whiteSpace=wrap;rounded=0;fontFamily=Songti TC;" vertex="1" parent="1">
          <mxGeometry x="1124.75" y="1138" width="110.5" height="30" as="geometry" />
        </mxCell>
        <mxCell id="oUjWwWJiYIkfK6Kyxx1s-136" value="&lt;font style=&quot;font-size: 25px;&quot;&gt;-&lt;/font&gt;" style="text;html=1;strokeColor=none;fillColor=none;align=center;verticalAlign=middle;whiteSpace=wrap;rounded=0;fontFamily=Songti TC;" vertex="1" parent="1">
          <mxGeometry x="1100.25" y="1148" width="30" height="10" as="geometry" />
        </mxCell>
        <mxCell id="oUjWwWJiYIkfK6Kyxx1s-137" value="" style="endArrow=none;html=1;rounded=0;" edge="1" parent="1">
          <mxGeometry width="50" height="50" relative="1" as="geometry">
            <mxPoint x="1110" y="1167.71" as="sourcePoint" />
            <mxPoint x="1221.5" y="1167.71" as="targetPoint" />
          </mxGeometry>
        </mxCell>
        <mxCell id="oUjWwWJiYIkfK6Kyxx1s-138" value="&lt;font color=&quot;#0000ff&quot; style=&quot;font-size: 25px;&quot;&gt;&amp;nbsp; &amp;nbsp; &amp;nbsp;2&lt;/font&gt;" style="text;html=1;strokeColor=none;fillColor=none;align=center;verticalAlign=middle;whiteSpace=wrap;rounded=0;fontFamily=Songti TC;" vertex="1" parent="1">
          <mxGeometry x="1140" y="1168" width="110.5" height="30" as="geometry" />
        </mxCell>
        <mxCell id="oUjWwWJiYIkfK6Kyxx1s-145" value="" style="endArrow=classic;html=1;rounded=0;dashed=1;strokeColor=#FF0000;" edge="1" parent="1">
          <mxGeometry width="50" height="50" relative="1" as="geometry">
            <mxPoint x="1205.5" y="960" as="sourcePoint" />
            <mxPoint x="1205" y="1110" as="targetPoint" />
          </mxGeometry>
        </mxCell>
        <mxCell id="oUjWwWJiYIkfK6Kyxx1s-146" value="" style="endArrow=classic;html=1;rounded=0;dashed=1;strokeColor=#FF0000;" edge="1" parent="1">
          <mxGeometry width="50" height="50" relative="1" as="geometry">
            <mxPoint x="992" y="963" as="sourcePoint" />
            <mxPoint x="992.25" y="1043" as="targetPoint" />
          </mxGeometry>
        </mxCell>
        <mxCell id="oUjWwWJiYIkfK6Kyxx1s-147" value="" style="endArrow=classic;html=1;rounded=0;dashed=1;strokeColor=#FF0000;" edge="1" parent="1">
          <mxGeometry width="50" height="50" relative="1" as="geometry">
            <mxPoint x="770.5" y="960" as="sourcePoint" />
            <mxPoint x="770" y="990" as="targetPoint" />
          </mxGeometry>
        </mxCell>
        <mxCell id="oUjWwWJiYIkfK6Kyxx1s-148" value="&lt;font style=&quot;font-size: 14px;&quot;&gt;2&lt;/font&gt;" style="rounded=0;whiteSpace=wrap;html=1;fontFamily=Songti TC;fontSize=14;fillColor=#dae8fc;strokeColor=#6c8ebf;" vertex="1" parent="1">
          <mxGeometry x="639" y="1413" width="40" height="40" as="geometry" />
        </mxCell>
        <mxCell id="oUjWwWJiYIkfK6Kyxx1s-149" value="3" style="rounded=0;whiteSpace=wrap;html=1;fontFamily=Songti TC;fontSize=14;fillColor=#dae8fc;strokeColor=#6c8ebf;" vertex="1" parent="1">
          <mxGeometry x="679" y="1413" width="40" height="40" as="geometry" />
        </mxCell>
        <mxCell id="oUjWwWJiYIkfK6Kyxx1s-150" value="4" style="rounded=0;whiteSpace=wrap;html=1;fontFamily=Songti TC;fontSize=14;fillColor=#dae8fc;strokeColor=#6c8ebf;" vertex="1" parent="1">
          <mxGeometry x="719" y="1413" width="40" height="40" as="geometry" />
        </mxCell>
        <mxCell id="oUjWwWJiYIkfK6Kyxx1s-151" value="5" style="rounded=0;whiteSpace=wrap;html=1;fontFamily=Songti TC;fontSize=14;" vertex="1" parent="1">
          <mxGeometry x="759" y="1413" width="40" height="40" as="geometry" />
        </mxCell>
        <mxCell id="oUjWwWJiYIkfK6Kyxx1s-152" value="6" style="rounded=0;whiteSpace=wrap;html=1;fontFamily=Songti TC;fontSize=14;" vertex="1" parent="1">
          <mxGeometry x="799" y="1413" width="40" height="40" as="geometry" />
        </mxCell>
        <mxCell id="oUjWwWJiYIkfK6Kyxx1s-155" value="&lt;font style=&quot;font-size: 14px;&quot;&gt;1&lt;/font&gt;" style="rounded=0;whiteSpace=wrap;html=1;fontFamily=Songti TC;fontSize=14;" vertex="1" parent="1">
          <mxGeometry x="599" y="1413" width="40" height="40" as="geometry" />
        </mxCell>
        <mxCell id="oUjWwWJiYIkfK6Kyxx1s-171" value="" style="group" vertex="1" connectable="0" parent="1">
          <mxGeometry x="599" y="1453" width="240" height="20" as="geometry" />
        </mxCell>
        <mxCell id="oUjWwWJiYIkfK6Kyxx1s-165" value="&lt;font style=&quot;font-size: 14px;&quot;&gt;2&lt;/font&gt;" style="rounded=0;whiteSpace=wrap;html=1;fontFamily=Songti TC;fontSize=14;" vertex="1" parent="oUjWwWJiYIkfK6Kyxx1s-171">
          <mxGeometry x="40" width="40" height="20" as="geometry" />
        </mxCell>
        <mxCell id="oUjWwWJiYIkfK6Kyxx1s-166" value="3" style="rounded=0;whiteSpace=wrap;html=1;fontFamily=Songti TC;fontSize=14;" vertex="1" parent="oUjWwWJiYIkfK6Kyxx1s-171">
          <mxGeometry x="80" width="40" height="20" as="geometry" />
        </mxCell>
        <mxCell id="oUjWwWJiYIkfK6Kyxx1s-167" value="4" style="rounded=0;whiteSpace=wrap;html=1;fontFamily=Songti TC;fontSize=14;" vertex="1" parent="oUjWwWJiYIkfK6Kyxx1s-171">
          <mxGeometry x="120" width="40" height="20" as="geometry" />
        </mxCell>
        <mxCell id="oUjWwWJiYIkfK6Kyxx1s-168" value="5" style="rounded=0;whiteSpace=wrap;html=1;fontFamily=Songti TC;fontSize=14;" vertex="1" parent="oUjWwWJiYIkfK6Kyxx1s-171">
          <mxGeometry x="160" width="40" height="20" as="geometry" />
        </mxCell>
        <mxCell id="oUjWwWJiYIkfK6Kyxx1s-169" value="6" style="rounded=0;whiteSpace=wrap;html=1;fontFamily=Songti TC;fontSize=14;" vertex="1" parent="oUjWwWJiYIkfK6Kyxx1s-171">
          <mxGeometry x="200" width="40" height="20" as="geometry" />
        </mxCell>
        <mxCell id="oUjWwWJiYIkfK6Kyxx1s-170" value="&lt;font style=&quot;font-size: 14px;&quot;&gt;1&lt;/font&gt;" style="rounded=0;whiteSpace=wrap;html=1;fontFamily=Songti TC;fontSize=14;" vertex="1" parent="oUjWwWJiYIkfK6Kyxx1s-171">
          <mxGeometry width="40" height="20" as="geometry" />
        </mxCell>
        <mxCell id="oUjWwWJiYIkfK6Kyxx1s-172" value="&lt;font face=&quot;Songti TC&quot;&gt;下标&lt;/font&gt;" style="text;html=1;align=center;verticalAlign=middle;resizable=0;points=[];autosize=1;strokeColor=none;fillColor=none;" vertex="1" parent="1">
          <mxGeometry x="550" y="1450" width="42" height="26" as="geometry" />
        </mxCell>
        <mxCell id="oUjWwWJiYIkfK6Kyxx1s-173" value="&lt;font face=&quot;Songti TC&quot;&gt;S[2, 4] = S[4] + S[1]&lt;/font&gt;" style="text;html=1;align=center;verticalAlign=middle;resizable=0;points=[];autosize=1;strokeColor=none;fillColor=none;" vertex="1" parent="1">
          <mxGeometry x="645.5" y="1481" width="111" height="26" as="geometry" />
        </mxCell>
        <mxCell id="oUjWwWJiYIkfK6Kyxx1s-174" value="&lt;font style=&quot;font-size: 14px;&quot; face=&quot;Songti TC&quot;&gt;a[i]&lt;/font&gt;" style="text;html=1;align=center;verticalAlign=middle;resizable=0;points=[];autosize=1;strokeColor=none;fillColor=none;" vertex="1" parent="1">
          <mxGeometry x="553" y="1419" width="36" height="29" as="geometry" />
        </mxCell>
        <mxCell id="oUjWwWJiYIkfK6Kyxx1s-175" value="" style="endArrow=classic;html=1;rounded=0;entryX=0;entryY=0;entryDx=0;entryDy=0;exitX=0;exitY=0;exitDx=0;exitDy=0;" edge="1" parent="1" source="oUjWwWJiYIkfK6Kyxx1s-155" target="oUjWwWJiYIkfK6Kyxx1s-151">
          <mxGeometry width="50" height="50" relative="1" as="geometry">
            <mxPoint x="600" y="1410" as="sourcePoint" />
            <mxPoint x="742" y="1375" as="targetPoint" />
            <Array as="points">
              <mxPoint x="599" y="1378" />
              <mxPoint x="759" y="1378" />
            </Array>
          </mxGeometry>
        </mxCell>
        <mxCell id="oUjWwWJiYIkfK6Kyxx1s-176" value="&lt;font face=&quot;Songti TC&quot;&gt;S[4]&lt;/font&gt;" style="text;html=1;align=center;verticalAlign=middle;resizable=0;points=[];autosize=1;strokeColor=none;fillColor=none;" vertex="1" parent="1">
          <mxGeometry x="681" y="1389" width="36" height="26" as="geometry" />
        </mxCell>
        <mxCell id="oUjWwWJiYIkfK6Kyxx1s-177" value="" style="endArrow=classic;html=1;rounded=0;exitX=0;exitY=0;exitDx=0;exitDy=0;entryX=1;entryY=0;entryDx=0;entryDy=0;" edge="1" parent="1" target="oUjWwWJiYIkfK6Kyxx1s-155">
          <mxGeometry width="50" height="50" relative="1" as="geometry">
            <mxPoint x="599" y="1416" as="sourcePoint" />
            <mxPoint x="638" y="1410" as="targetPoint" />
            <Array as="points">
              <mxPoint x="599" y="1389" />
              <mxPoint x="639" y="1389" />
            </Array>
          </mxGeometry>
        </mxCell>
        <mxCell id="oUjWwWJiYIkfK6Kyxx1s-178" value="&lt;font face=&quot;Songti TC&quot;&gt;S[1]&lt;/font&gt;" style="text;html=1;align=center;verticalAlign=middle;resizable=0;points=[];autosize=1;strokeColor=none;fillColor=none;" vertex="1" parent="1">
          <mxGeometry x="600" y="1389" width="36" height="26" as="geometry" />
        </mxCell>
      </root>
    </mxGraphModel>
  </diagram>
</mxfile>
